<?xml version="1.0" encoding="UTF-8" standalone="no"?>
<!-- Created with Inkscape (http://www.inkscape.org/) -->

<svg
   width="49.000645mm"
   height="17.82065mm"
   viewBox="0 0 49.000645 17.82065"
   version="1.1"
   id="svg1"
   xml:space="preserve"
   xmlns="http://www.w3.org/2000/svg"
   xmlns:svg="http://www.w3.org/2000/svg"><defs
     id="defs1" /><g
     id="layer1"
     transform="translate(-57.356376,-137.28699)"><g
       id="g139"
       transform="translate(-1.3811386,-2.1484378)"><path
         id="path2-0-7-8"
         d="m 82.950163,152.24263 c 0,-0.62838 -0.264584,-0.87643 -0.884701,-0.87643 -0.607713,0 -0.8847,0.41756 -0.971515,0.59118 h -0.0041 v -1.66605 c 0,-0.19429 -0.04547,-0.28938 -0.293521,-0.28938 h -0.223242 c -0.219109,0 -0.293523,0.0661 -0.293523,0.28938 v 3.62976 c 0,0.21911 0.06615,0.29353 0.293523,0.29353 h 0.239779 c 0.23151,0 0.293521,-0.0786 0.293521,-0.29353 v -1.33945 c 0,-0.52917 0.351401,-0.77721 0.669726,-0.77721 0.289388,0 0.351401,0.14054 0.351401,0.45061 v 1.66605 c 0,0.19431 0.04134,0.29353 0.289388,0.29353 h 0.243912 c 0.23151,0 0.289388,-0.0786 0.289388,-0.29353 z m 2.989998,0.67387 c 0.14056,0 0.293523,-0.008 0.293523,-0.28112 0,-0.78134 -0.363802,-1.30638 -1.269174,-1.30638 -0.971516,0 -1.451073,0.5457 -1.451073,1.47174 0,0.99632 0.57464,1.48003 1.529622,1.48003 0.231511,0 0.574641,-0.0289 0.975651,-0.23151 0.136425,-0.0661 0.177766,-0.0827 0.177766,-0.15711 0,-0.0413 -0.02066,-0.2191 -0.02479,-0.26458 -0.02479,-0.19016 -0.02894,-0.19844 -0.08682,-0.19844 -0.02066,0 -0.03307,0 -0.103352,0.062 -0.355534,0.31006 -0.719336,0.35139 -0.913641,0.35139 -0.686263,0 -0.760677,-0.53742 -0.777213,-0.92604 z m -1.645378,-0.32245 c 0.01654,-0.37208 0.14056,-0.82682 0.669727,-0.82682 0.483692,0 0.574643,0.35139 0.595312,0.82682 z m 7.026963,-0.35142 c 0,-0.62838 -0.268719,-0.87643 -0.884701,-0.87643 -0.434083,0 -0.768945,0.20259 -0.983919,0.59946 -0.09922,-0.58293 -0.615984,-0.59946 -0.872299,-0.59946 -0.11162,0 -0.367935,0 -0.640787,0.20259 -0.190169,0.13642 -0.31006,0.33073 -0.351401,0.42167 h -0.0083 v -0.30179 c 0,-0.19431 -0.04134,-0.29353 -0.289388,-0.29353 H 87.08429 c -0.219106,0 -0.293523,0.0703 -0.293523,0.29353 v 2.23242 c 0,0.21911 0.06615,0.29353 0.293523,0.29353 h 0.239779 c 0.231511,0 0.293521,-0.0786 0.293521,-0.29353 v -1.33945 c 0,-0.5457 0.372073,-0.77721 0.669729,-0.77721 0.289385,0 0.355531,0.12816 0.355531,0.45061 v 1.66605 c 0,0.21911 0.06615,0.29353 0.293524,0.29353 h 0.239778 c 0.231511,0 0.293521,-0.0786 0.293521,-0.29353 v -1.33945 c 0,-0.5457 0.372073,-0.77721 0.669729,-0.77721 0.289386,0 0.355532,0.12816 0.355532,0.45061 v 1.66605 c 0,0.21911 0.06615,0.29353 0.293523,0.29353 h 0.239779 c 0.23151,0 0.293521,-0.0786 0.293521,-0.29353 z m 6.089549,0.60359 c 0,-0.99218 -0.487825,-1.51722 -1.475877,-1.51722 -1.01286,0 -1.480013,0.54157 -1.480013,1.51722 0,0.99219 0.520898,1.43455 1.475877,1.43455 0.950847,0 1.480013,-0.43823 1.480013,-1.43455 z m -1.475877,0.96325 c -0.657326,0 -0.657326,-0.54983 -0.657326,-1.03352 0,-0.46717 0,-1.00872 0.65319,-1.00872 0.65319,0 0.65319,0.53329 0.65319,1.00872 0,0.47956 0,1.03352 -0.649054,1.03352 z m 2.666502,-0.99219 c 0,-0.57465 0.479558,-0.81441 0.864032,-0.83923 0.107487,-0.004 0.119888,-0.004 0.119888,-0.16121 v -0.28528 c 0,-0.12401 0,-0.16536 -0.107487,-0.16536 -0.173633,0 -0.615982,0.062 -0.901237,0.71522 h -0.0041 v -0.39275 c 0,-0.19431 -0.04547,-0.29353 -0.293521,-0.29353 h -0.194304 c -0.219107,0 -0.289388,0.0703 -0.289388,0.29353 v 2.23242 c 0,0.21911 0.06614,0.29353 0.289388,0.29353 h 0.223242 c 0.23151,0 0.293523,-0.0786 0.293523,-0.29353 z m 3.8561,1.09553 c 0,-0.0703 -0.0248,-0.34726 -0.0331,-0.42579 0,-0.0206 -0.0124,-0.0786 -0.0744,-0.0786 -0.0248,0 -0.0372,0 -0.0992,0.0579 -0.10335,0.091 -0.38861,0.34314 -0.8847,0.34314 -0.63252,0 -0.63252,-0.61598 -0.63252,-1.0046 0,-0.49194 0.0289,-1.00044 0.64906,-1.00044 0.39687,0 0.5581,0.0951 0.77721,0.27699 0.0744,0.0703 0.0868,0.0703 0.11162,0.0703 0.0579,0 0.0703,-0.0579 0.0786,-0.0827 0.0124,-0.0455 0.0744,-0.38862 0.0744,-0.41754 0,-0.0538 -0.0455,-0.0785 -0.14883,-0.12816 -0.28938,-0.13229 -0.47128,-0.19431 -0.8971,-0.19431 -0.90537,0 -1.471744,0.42582 -1.471744,1.48828 0,1.00872 0.525034,1.46349 1.442804,1.46349 0.16123,0 0.52503,-0.004 0.93431,-0.21085 0.1695,-0.091 0.17364,-0.0992 0.17364,-0.15711 z m 3.22977,-1.67018 c 0,-0.62838 -0.26458,-0.87643 -0.8847,-0.87643 -0.60771,0 -0.8847,0.41756 -0.97151,0.59118 h -0.004 v -1.66605 c 0,-0.19429 -0.0455,-0.28938 -0.29352,-0.28938 h -0.22325 c -0.2191,0 -0.29352,0.0661 -0.29352,0.28938 v 3.62976 c 0,0.21911 0.0661,0.29353 0.29352,0.29353 h 0.23978 c 0.23152,0 0.29353,-0.0786 0.29353,-0.29353 v -1.33945 c 0,-0.52917 0.3514,-0.77721 0.66972,-0.77721 0.28939,0 0.3514,0.14054 0.3514,0.45061 v 1.66605 c 0,0.19431 0.0413,0.29353 0.28939,0.29353 h 0.24391 c 0.23151,0 0.28939,-0.0786 0.28939,-0.29353 z m 0,0"
         style="display:inline;fill:#ffffff;fill-opacity:1;fill-rule:nonzero;stroke:none;stroke-width:0.352777"
         aria-label="hemorch"
         transform="translate(-1.275e-6)" /><path
         id="path4-0-9-9"
         d="m 92.209547,148.17882 v 5.68438 c 0,0.37621 0.115756,0.50438 0.508495,0.50438 h 0.537435 c 0.40101,0 0.504362,-0.13642 0.504362,-0.50438 v -5.68438 c 0.463021,0 1.645378,0.0331 2.108398,0.0331 0.293524,0 0.549839,0 0.549839,-0.5085 v -0.0827 c 0,-0.33901 -0.07441,-0.50437 -0.508497,-0.50437 h -5.862175 c -0.376203,0 -0.504362,0.11575 -0.504362,0.50437 v 0.0827 c 0,0.5085 0.252182,0.5085 0.549839,0.5085 z m 0,0"
         style="display:none;fill:#ffffff;fill-opacity:1;fill-rule:nonzero;stroke:none;stroke-width:0.352777"
         aria-label="T"
         transform="translate(-1.275e-6)" /><path
         id="path3-9-5-7-3"
         d="m 79.529182,152.85863 c 0,-0.0827 -0.07441,-0.12403 -0.115755,-0.12403 -0.252182,0 -0.558107,0.68212 -2.046388,0.68212 -1.856216,0 -2.38125,-1.13686 -2.38125,-2.71611 0,-1.57096 0.570508,-2.71198 2.298568,-2.71198 0.938445,0 1.434539,0.36793 1.719791,0.6036 0.06201,0.0496 0.09095,0.0951 0.165365,0.0951 0.04548,0 0.09509,-0.0537 0.107487,-0.0951 l 0.210841,-1.16996 c 0.0083,-0.0455 0,-0.0868 -0.08682,-0.11989 -0.620117,-0.23151 -1.265039,-0.37621 -2.083593,-0.37621 -2.575552,0 -3.890201,1.25265 -3.890201,3.76203 0,2.58384 1.335318,3.78685 3.898469,3.78685 0.897104,0 1.455208,-0.12814 2.224154,-0.60357 0.08682,-0.0537 0.06201,-0.12403 0.06201,-0.12403 z m 0,0"
         style="display:inline;fill:#ffffff;fill-opacity:1;fill-rule:nonzero;stroke:none;stroke-width:0.352777"
         aria-label="C"
         transform="translate(-1.275e-6)" /><path
         id="path2-0-7-8-3"
         d="m 82.950163,152.24263 c 0,-0.62838 -0.264584,-0.87643 -0.884701,-0.87643 -0.607713,0 -0.8847,0.41756 -0.971515,0.59118 h -0.0041 v -1.66605 c 0,-0.19429 -0.04547,-0.28938 -0.293521,-0.28938 h -0.223242 c -0.219109,0 -0.293523,0.0661 -0.293523,0.28938 v 3.62976 c 0,0.21911 0.06615,0.29353 0.293523,0.29353 h 0.239779 c 0.23151,0 0.293521,-0.0786 0.293521,-0.29353 v -1.33945 c 0,-0.52917 0.351401,-0.77721 0.669726,-0.77721 0.289388,0 0.351401,0.14054 0.351401,0.45061 v 1.66605 c 0,0.19431 0.04134,0.29353 0.289388,0.29353 h 0.243912 c 0.23151,0 0.289388,-0.0786 0.289388,-0.29353 z m 2.989998,0.67387 c 0.14056,0 0.293523,-0.008 0.293523,-0.28112 0,-0.78134 -0.363802,-1.30638 -1.269174,-1.30638 -0.971516,0 -1.451073,0.5457 -1.451073,1.47174 0,0.99632 0.57464,1.48003 1.529622,1.48003 0.231511,0 0.574641,-0.0289 0.975651,-0.23151 0.136425,-0.0661 0.177766,-0.0827 0.177766,-0.15711 0,-0.0413 -0.02066,-0.2191 -0.02479,-0.26458 -0.02479,-0.19016 -0.02894,-0.19844 -0.08682,-0.19844 -0.02066,0 -0.03307,0 -0.103352,0.062 -0.355534,0.31006 -0.719336,0.35139 -0.913641,0.35139 -0.686263,0 -0.760677,-0.53742 -0.777213,-0.92604 z m -1.645378,-0.32245 c 0.01654,-0.37208 0.14056,-0.82682 0.669727,-0.82682 0.483692,0 0.574643,0.35139 0.595312,0.82682 z m 7.026963,-0.35142 c 0,-0.62838 -0.268719,-0.87643 -0.884701,-0.87643 -0.434083,0 -0.768945,0.20259 -0.983919,0.59946 -0.09922,-0.58293 -0.615984,-0.59946 -0.872299,-0.59946 -0.11162,0 -0.367935,0 -0.640787,0.20259 -0.190169,0.13642 -0.31006,0.33073 -0.351401,0.42167 h -0.0083 v -0.30179 c 0,-0.19431 -0.04134,-0.29353 -0.289388,-0.29353 H 87.08429 c -0.219106,0 -0.293523,0.0703 -0.293523,0.29353 v 2.23242 c 0,0.21911 0.06615,0.29353 0.293523,0.29353 h 0.239779 c 0.231511,0 0.293521,-0.0786 0.293521,-0.29353 v -1.33945 c 0,-0.5457 0.372073,-0.77721 0.669729,-0.77721 0.289385,0 0.355531,0.12816 0.355531,0.45061 v 1.66605 c 0,0.21911 0.06615,0.29353 0.293524,0.29353 h 0.239778 c 0.231511,0 0.293521,-0.0786 0.293521,-0.29353 v -1.33945 c 0,-0.5457 0.372073,-0.77721 0.669729,-0.77721 0.289386,0 0.355532,0.12816 0.355532,0.45061 v 1.66605 c 0,0.21911 0.06615,0.29353 0.293523,0.29353 h 0.239779 c 0.23151,0 0.293521,-0.0786 0.293521,-0.29353 z m 6.089549,0.60359 c 0,-0.99218 -0.487825,-1.51722 -1.475877,-1.51722 -1.01286,0 -1.480013,0.54157 -1.480013,1.51722 0,0.99219 0.520898,1.43455 1.475877,1.43455 0.950847,0 1.480013,-0.43823 1.480013,-1.43455 z m -1.475877,0.96325 c -0.657326,0 -0.657326,-0.54983 -0.657326,-1.03352 0,-0.46717 0,-1.00872 0.65319,-1.00872 0.65319,0 0.65319,0.53329 0.65319,1.00872 0,0.47956 0,1.03352 -0.649054,1.03352 z m 2.666502,-0.99219 c 0,-0.57465 0.479558,-0.81441 0.864032,-0.83923 0.107487,-0.004 0.119888,-0.004 0.119888,-0.16121 v -0.28528 c 0,-0.12401 0,-0.16536 -0.107487,-0.16536 -0.173633,0 -0.615982,0.062 -0.901237,0.71522 h -0.0041 v -0.39275 c 0,-0.19431 -0.04547,-0.29353 -0.293521,-0.29353 h -0.194304 c -0.219107,0 -0.289388,0.0703 -0.289388,0.29353 v 2.23242 c 0,0.21911 0.06614,0.29353 0.289388,0.29353 h 0.223242 c 0.23151,0 0.293523,-0.0786 0.293523,-0.29353 z m 3.8561,1.09553 c 0,-0.0703 -0.0248,-0.34726 -0.0331,-0.42579 0,-0.0206 -0.0124,-0.0786 -0.0744,-0.0786 -0.0248,0 -0.0372,0 -0.0992,0.0579 -0.10335,0.091 -0.38861,0.34314 -0.8847,0.34314 -0.63252,0 -0.63252,-0.61598 -0.63252,-1.0046 0,-0.49194 0.0289,-1.00044 0.64906,-1.00044 0.39687,0 0.5581,0.0951 0.77721,0.27699 0.0744,0.0703 0.0868,0.0703 0.11162,0.0703 0.0579,0 0.0703,-0.0579 0.0786,-0.0827 0.0124,-0.0455 0.0744,-0.38862 0.0744,-0.41754 0,-0.0538 -0.0455,-0.0785 -0.14883,-0.12816 -0.28938,-0.13229 -0.47128,-0.19431 -0.8971,-0.19431 -0.90537,0 -1.471744,0.42582 -1.471744,1.48828 0,1.00872 0.525034,1.46349 1.442804,1.46349 0.16123,0 0.52503,-0.004 0.93431,-0.21085 0.1695,-0.091 0.17364,-0.0992 0.17364,-0.15711 z m 3.22977,-1.67018 c 0,-0.62838 -0.26458,-0.87643 -0.8847,-0.87643 -0.60771,0 -0.8847,0.41756 -0.97151,0.59118 h -0.004 v -1.66605 c 0,-0.19429 -0.0455,-0.28938 -0.29352,-0.28938 h -0.22325 c -0.2191,0 -0.29352,0.0661 -0.29352,0.28938 v 3.62976 c 0,0.21911 0.0661,0.29353 0.29352,0.29353 h 0.23978 c 0.23152,0 0.29353,-0.0786 0.29353,-0.29353 v -1.33945 c 0,-0.52917 0.3514,-0.77721 0.66972,-0.77721 0.28939,0 0.3514,0.14054 0.3514,0.45061 v 1.66605 c 0,0.19431 0.0413,0.29353 0.28939,0.29353 h 0.24391 c 0.23151,0 0.28939,-0.0786 0.28939,-0.29353 z m 0,0"
         style="display:none;fill:#000000;fill-opacity:1;fill-rule:nonzero;stroke:none;stroke-width:0.352777"
         aria-label="hemorch"
         transform="translate(-1.275e-6)" /><path
         id="path4-0-9-9-7"
         d="m 92.209547,148.17882 v 5.68438 c 0,0.37621 0.115756,0.50438 0.508495,0.50438 h 0.537435 c 0.40101,0 0.504362,-0.13642 0.504362,-0.50438 v -5.68438 c 0.463021,0 1.645378,0.0331 2.108398,0.0331 0.293524,0 0.549839,0 0.549839,-0.5085 v -0.0827 c 0,-0.33901 -0.07441,-0.50437 -0.508497,-0.50437 h -5.862175 c -0.376203,0 -0.504362,0.11575 -0.504362,0.50437 v 0.0827 c 0,0.5085 0.252182,0.5085 0.549839,0.5085 z m 0,0"
         style="display:inline;fill:#bf0040;fill-opacity:1;fill-rule:nonzero;stroke:none;stroke-width:0.352777"
         aria-label="T"
         transform="translate(-1.275e-6)" /><path
         id="path3-9-5-7"
         d="m 79.529182,152.85863 c 0,-0.0827 -0.07441,-0.12403 -0.115755,-0.12403 -0.252182,0 -0.558107,0.68212 -2.046388,0.68212 -1.856216,0 -2.38125,-1.13686 -2.38125,-2.71611 0,-1.57096 0.570508,-2.71198 2.298568,-2.71198 0.938445,0 1.434539,0.36793 1.719791,0.6036 0.06201,0.0496 0.09095,0.0951 0.165365,0.0951 0.04548,0 0.09509,-0.0537 0.107487,-0.0951 l 0.210841,-1.16996 c 0.0083,-0.0455 0,-0.0868 -0.08682,-0.11989 -0.620117,-0.23151 -1.265039,-0.37621 -2.083593,-0.37621 -2.575552,0 -3.890201,1.25265 -3.890201,3.76203 0,2.58384 1.335318,3.78685 3.898469,3.78685 0.897104,0 1.455208,-0.12814 2.224154,-0.60357 0.08682,-0.0537 0.06201,-0.12403 0.06201,-0.12403 z m 0,0"
         style="display:none;fill:#000000;fill-opacity:1;fill-rule:nonzero;stroke:none;stroke-width:0.352777"
         aria-label="C" /><g
         id="g5"
         style="display:inline;fill:#ffffff;fill-opacity:1"
         transform="translate(-1.275e-6)"><rect
           style="fill:#ffffff;fill-opacity:1;stroke:none;stroke-width:1.1;stroke-dasharray:none;stroke-opacity:1"
           id="rect3"
           width="4.8379273"
           height="1.7460737"
           x="64.56604"
           y="144.136" /><rect
           style="fill:#ffffff;fill-opacity:1;stroke:none;stroke-width:1.03608;stroke-dasharray:none;stroke-opacity:1"
           id="rect3-9"
           width="3.0000691"
           height="2.4979761"
           x="65.487526"
           y="145.5079" /><rect
           style="fill:#ffffff;fill-opacity:1;stroke:none;stroke-width:1.66765;stroke-dasharray:none;stroke-opacity:1"
           id="rect3-9-9"
           width="11.119461"
           height="1.7460737"
           x="-120.13727"
           y="116.16793"
           transform="rotate(-67.896745)" /><rect
           style="fill:#ffffff;fill-opacity:1;stroke:none;stroke-width:1.50086;stroke-dasharray:none;stroke-opacity:1"
           id="rect3-9-9-3"
           width="10.308441"
           height="1.5255342"
           x="-171.76471"
           y="-7.8361187"
           transform="matrix(-0.37799379,-0.92580813,-0.89235024,0.45134361,0,0)" /><rect
           style="fill:#ffffff;fill-opacity:1;stroke:none;stroke-width:1.95917;stroke-dasharray:none;stroke-opacity:1"
           id="rect3-9-2"
           width="9.3597355"
           height="2.862987"
           x="62.307766"
           y="154.14308"
           ry="1.2435892" /></g><path
         id="path5-1-2-5"
         style="fill:none;stroke:#bf0040;stroke-width:0.499996;stroke-linecap:butt;stroke-linejoin:miter;stroke-miterlimit:10;stroke-dasharray:none;stroke-opacity:1"
         d="m 64.987936,142.0059 h -4.243114 c -0.970553,0 -1.757321,0.78676 -1.757321,1.75731 v 0 10.48546 c 0,0.97055 0.786768,1.75734 1.757321,1.75734 h 0.242876" /><path
         id="path5-1-2-5-2"
         style="fill:none;stroke:#bf0040;stroke-width:0.499996;stroke-linecap:butt;stroke-linejoin:miter;stroke-miterlimit:10;stroke-dasharray:none;stroke-opacity:1"
         d="m 64.987936,142.0059 h -4.243114 c -0.970553,0 -1.757321,0.78676 -1.757321,1.75731 v 0 10.48546 c 0,0.97055 0.786768,1.75734 1.757321,1.75734 h 0.242876" /><path
         id="path110-9"
         style="fill:none;stroke:#bf0040;stroke-width:0.499996;stroke-linecap:butt;stroke-linejoin:miter;stroke-miterlimit:10;stroke-dasharray:none;stroke-opacity:1"
         d="m 72.987897,156.00601 h 32.742933 c 0.97056,0 1.75733,-0.78679 1.75733,-1.75734 v -10.48546 c 0,-0.97055 -0.78677,-1.75731 -1.75733,-1.75731 H 76.987616" /><path
         id="path12-8-8-2"
         d="m 69.487665,140.50579 c 0,-0.55233 -0.447741,-1.00008 -1.000069,-1.00008 -0.552331,0 -1.000077,0.44775 -1.000077,1.00008 0,0.55233 0.447746,1.00007 1.000077,1.00007 0.552328,0 1.000069,-0.44774 1.000069,-1.00007 z"
         style="fill:#bf0040;fill-opacity:1;fill-rule:nonzero;stroke:#bf0040;stroke-width:0.140582;stroke-linecap:butt;stroke-linejoin:miter;stroke-miterlimit:10;stroke-dasharray:none;stroke-opacity:1" /><path
         id="path13-3-0-8"
         d="m 73.487803,141.50586 c 0,-0.55233 -0.447747,-1.00007 -1.000072,-1.00007 -0.552326,0 -1.000072,0.44774 -1.000072,1.00007 0,0.55233 0.447746,1.00007 1.000072,1.00007 0.552325,0 1.000072,-0.44774 1.000072,-1.00007 z"
         style="fill:#bf0040;fill-opacity:1;fill-rule:nonzero;stroke:#bf0040;stroke-width:0.140582;stroke-linecap:butt;stroke-linejoin:miter;stroke-miterlimit:10;stroke-dasharray:none;stroke-opacity:1" /><path
         id="path14-9-3-3"
         d="m 67.487667,142.50578 c 0,-0.55233 -0.447744,-1.00007 -1.000075,-1.00007 -0.552323,0 -1.000069,0.44774 -1.000069,1.00007 0,0.55232 0.447746,1.00007 1.000069,1.00007 0.552331,0 1.000075,-0.44775 1.000075,-1.00007 z"
         style="fill:#590059;fill-opacity:1;fill-rule:nonzero;stroke:#590059;stroke-width:0.140582;stroke-linecap:butt;stroke-linejoin:miter;stroke-miterlimit:10;stroke-dasharray:none;stroke-opacity:1" /><path
         id="path15-9-6-9"
         d="m 74.98776,144.00589 c 0,-0.55232 -0.447741,-1.00007 -1.000067,-1.00007 -0.55233,0 -1.000072,0.44775 -1.000072,1.00007 0,0.55234 0.447742,1.00007 1.000072,1.00007 0.552326,0 1.000067,-0.44773 1.000067,-1.00007 z"
         style="fill:#590059;fill-opacity:1;fill-rule:nonzero;stroke:#590059;stroke-width:0.140582;stroke-linecap:butt;stroke-linejoin:miter;stroke-miterlimit:10;stroke-dasharray:none;stroke-opacity:1" /><path
         id="path16-3-3-3"
         d="m 76.48772,142.0059 c 0,-0.55233 -0.447746,-1.00008 -1.000077,-1.00008 -0.552323,0 -1.000067,0.44775 -1.000067,1.00008 0,0.55232 0.447744,1.00007 1.000067,1.00007 0.552331,0 1.000077,-0.44775 1.000077,-1.00007 z"
         style="fill:#590059;fill-opacity:1;fill-rule:nonzero;stroke:#590059;stroke-width:0.140582;stroke-linecap:butt;stroke-linejoin:miter;stroke-miterlimit:10;stroke-dasharray:none;stroke-opacity:1" /><path
         id="path17-0-7-3"
         d="m 78.487864,144.50592 c 0,-0.55231 -0.447743,-1.00007 -1.000066,-1.00007 -0.552329,0 -1.000075,0.44776 -1.000075,1.00007 0,0.55235 0.447746,1.00007 1.000075,1.00007 0.552323,0 1.000066,-0.44772 1.000066,-1.00007 z"
         style="fill:#ff8000;fill-opacity:1;fill-rule:nonzero;stroke:#ff8000;stroke-width:0.140582;stroke-linecap:butt;stroke-linejoin:miter;stroke-miterlimit:10;stroke-dasharray:none;stroke-opacity:1" /><path
         id="path18-1-5-3"
         d="m 82.487851,148.50592 c 0,-0.55232 -0.447741,-1.00007 -1.000067,-1.00007 -0.552328,0 -1.000072,0.44775 -1.000072,1.00007 0,0.55232 0.447744,1.00007 1.000072,1.00007 0.552326,0 1.000067,-0.44775 1.000067,-1.00007 z"
         style="fill:#ff8000;fill-opacity:1;fill-rule:nonzero;stroke:#ff8000;stroke-width:0.140582;stroke-linecap:butt;stroke-linejoin:miter;stroke-miterlimit:10;stroke-dasharray:none;stroke-opacity:1" /><path
         id="path19-5-8-9"
         d="m 68.323941,140.34213 c 0.226467,-0.22647 0.326607,-0.49351 0.223668,-0.59644 -0.102934,-0.10294 -0.369975,-0.003 -0.596448,0.22367 -0.226465,0.22647 -0.326604,0.49351 -0.223668,0.59644 0.102934,0.10294 0.369975,0.003 0.596448,-0.22367 z"
         style="fill:#ffffff;fill-opacity:0.3;fill-rule:nonzero;stroke:none;stroke-width:0.352777" /><path
         id="path20-2-7-1"
         d="m 72.324083,141.34221 c 0.226468,-0.22647 0.326607,-0.49351 0.223669,-0.59645 -0.102934,-0.10293 -0.369975,-0.003 -0.596448,0.22367 -0.22647,0.22647 -0.326604,0.49352 -0.223668,0.59645 0.102933,0.10294 0.369975,0.003 0.596447,-0.22367 z"
         style="fill:#ffffff;fill-opacity:0.3;fill-rule:nonzero;stroke:none;stroke-width:0.352777" /><path
         id="path21-7-7-4"
         d="m 66.323945,142.34228 c 0.226472,-0.22647 0.326607,-0.49351 0.223673,-0.59645 -0.102939,-0.10293 -0.369977,-0.003 -0.59645,0.22367 -0.226473,0.22648 -0.326604,0.49351 -0.223671,0.59645 0.102936,0.10294 0.369975,0.003 0.596448,-0.22367 z"
         style="fill:#ffffff;fill-opacity:0.3;fill-rule:nonzero;stroke:none;stroke-width:0.352777" /><path
         id="path22-3-1-4"
         d="m 73.824035,143.84224 c 0.226473,-0.22648 0.326605,-0.49353 0.223671,-0.59645 -0.102936,-0.10294 -0.369975,-0.003 -0.596447,0.22368 -0.22647,0.22646 -0.326605,0.4935 -0.223671,0.59645 0.102936,0.10292 0.369975,0.003 0.596447,-0.22368 z"
         style="fill:#ffffff;fill-opacity:0.3;fill-rule:nonzero;stroke:none;stroke-width:0.352777" /><path
         id="path23-9-6-5"
         d="m 75.324149,141.84224 c 0.226473,-0.22647 0.326604,-0.49351 0.223665,-0.59645 -0.102931,-0.10293 -0.369972,-0.003 -0.596442,0.22368 -0.226473,0.22647 -0.32661,0.49351 -0.223671,0.59644 0.102934,0.10294 0.369975,0.003 0.596448,-0.22367 z"
         style="fill:#ffffff;fill-opacity:0.3;fill-rule:nonzero;stroke:none;stroke-width:0.352777" /><path
         id="path24-6-1-2"
         d="m 77.324137,144.34228 c 0.226473,-0.22649 0.326612,-0.49353 0.223676,-0.59645 -0.102936,-0.10295 -0.369975,-0.003 -0.596448,0.22368 -0.226472,0.22645 -0.326607,0.4935 -0.223673,0.59645 0.102939,0.10292 0.36998,0.003 0.596445,-0.22368 z"
         style="fill:#ffffff;fill-opacity:0.3;fill-rule:nonzero;stroke:none;stroke-width:0.352777" /><path
         id="path25-4-3-6"
         d="m 81.324126,148.34228 c 0.226473,-0.22649 0.326612,-0.49353 0.223671,-0.59645 -0.102928,-0.10295 -0.369975,-0.003 -0.596445,0.22365 -0.226473,0.22648 -0.326607,0.49352 -0.223673,0.59645 0.102938,0.10295 0.369982,0.003 0.596447,-0.22365 z"
         style="fill:#ffffff;fill-opacity:0.3;fill-rule:nonzero;stroke:none;stroke-width:0.352777" /><path
         id="path26-9-4-9"
         d="m 66.987633,156.00601 h -3.29706 c -0.388218,0 -0.592439,-0.29467 -0.456147,-0.65815 l 2.506356,-6.68385 c 0.136292,-0.36349 0.561485,-0.65813 0.949711,-0.65813 h 0.594133 c 0.388225,0 0.813424,0.29464 0.949732,0.65813 l 2.506464,6.68385 c 0.136303,0.36348 -0.06791,0.65815 -0.456131,0.65815 h -3.297058"
         style="fill:#590059;fill-opacity:1;fill-rule:nonzero;stroke:none;stroke-width:0.352777" /><path
         id="path27-2-3-5"
         d="m 63.587629,154.40594 2.153153,-5.74193 c 0.136292,-0.36349 0.561485,-0.65813 0.949711,-0.65813 h 0.594133 c 0.388225,0 0.813432,0.29464 0.949743,0.65813 l 2.153269,5.74193"
         style="fill:#9f0060;fill-opacity:1;fill-rule:nonzero;stroke:none;stroke-width:0.352777" /><path
         id="path28-3-2-0"
         d="m 64.187609,152.80588 1.553173,-4.14187 c 0.136292,-0.36349 0.561485,-0.65813 0.949711,-0.65813 h 0.594133 c 0.388225,0 0.813432,0.29464 0.949743,0.65813 l 1.553286,4.14187"
         style="fill:#bf0040;fill-opacity:1;fill-rule:nonzero;stroke:none;stroke-width:0.352777" /><path
         id="path29-5-2-3"
         d="m 64.78775,151.20599 0.953064,-2.54195 c 0.136268,-0.36349 0.561453,-0.65816 0.949679,-0.65816 h 0.594133 c 0.388225,0 0.813413,0.29467 0.949711,0.65816 l 0.953182,2.54195"
         style="fill:#df4020;fill-opacity:1;fill-rule:nonzero;stroke:none;stroke-width:0.352777" /><path
         id="path30-9-1-0"
         d="m 65.38773,149.60593 0.353115,-0.94189 c 0.136255,-0.36349 0.561422,-0.65816 0.949648,-0.65816 h 0.594133 c 0.388225,0 0.813408,0.29467 0.9497,0.65816 l 0.353214,0.94189"
         style="fill:#ff8000;fill-opacity:1;fill-rule:nonzero;stroke:none;stroke-width:0.352777" /><path
         id="path31-7-1-2"
         d="m 66.282921,152.18633 c 0.663906,-1.82407 0.980294,-3.38344 0.706692,-3.483 -0.273603,-0.0996 -1.033598,1.29833 -1.697506,3.12237 -0.663909,1.82404 -0.980297,3.38344 -0.706692,3.483 0.273606,0.0996 1.033592,-1.29834 1.697506,-3.12237 z"
         style="fill:#ffffff;fill-opacity:0.3;fill-rule:nonzero;stroke:none;stroke-width:0.352777" /><g
         id="g2"
         style="display:none;stroke:#ffffff;stroke-width:1.1;stroke-dasharray:none;stroke-opacity:1"
         transform="translate(-1.275e-6)"><path
           id="path8-2-9-6-2"
           d="m 65.487523,147.00594 -3.086368,7.71592 c -0.504578,1.26156 0.187855,2.28422 1.54663,2.28422 h 6.079694 c 1.358781,0 2.051195,-1.02266 1.546593,-2.2842 l -3.086476,-7.71594"
           style="fill:none;fill-opacity:1;stroke:#ffffff;stroke-width:1.1;stroke-linecap:butt;stroke-linejoin:miter;stroke-miterlimit:10;stroke-dasharray:none;stroke-opacity:1" /><path
           id="path9-5-6-6-7"
           d="m 65.487523,145.45632 v 1.54962 l -0.0496,0.12399"
           style="fill:none;fill-opacity:1;stroke:#ffffff;stroke-width:1.1;stroke-linecap:butt;stroke-linejoin:miter;stroke-miterlimit:10;stroke-dasharray:none;stroke-opacity:1" /><path
           id="path11-2-9-5-9"
           d="m 65.487523,146.00587 h -0.648457 c -0.194109,0 -0.351462,-0.15735 -0.351462,-0.35144 v -1.29707 c 0,-0.19413 0.157353,-0.35147 0.351462,-0.35147 h 4.297135 c 0.194111,0 0.351464,0.15734 0.351464,0.35147 v 1.29707 c 0,0.19409 -0.157353,0.35144 -0.351464,0.35144 h -0.648605"
           style="fill:none;fill-opacity:1;stroke:#ffffff;stroke-width:1.1;stroke-linecap:butt;stroke-linejoin:miter;stroke-miterlimit:10;stroke-dasharray:none;stroke-opacity:1" /><path
           id="path9-5-6-6-2-5"
           d="m 68.490697,145.45763 -0.0031,1.54831 0.04926,0.12406"
           style="fill:none;fill-opacity:1;stroke:#ffffff;stroke-width:1.1;stroke-linecap:butt;stroke-linejoin:miter;stroke-miterlimit:10;stroke-dasharray:none;stroke-opacity:1" /></g><g
         id="g1"
         style="display:inline"><path
           id="path8-2-9-6"
           d="m 65.487523,147.00594 -3.086368,7.71592 c -0.504578,1.26156 0.187855,2.28422 1.54663,2.28422 h 6.079694 c 1.358781,0 2.051195,-1.02266 1.546593,-2.2842 l -3.086476,-7.71594"
           style="fill:none;fill-opacity:1;stroke:#000000;stroke-width:0.499996;stroke-linecap:butt;stroke-linejoin:miter;stroke-miterlimit:10;stroke-dasharray:none;stroke-opacity:1" /><path
           id="path9-5-6-6"
           d="m 65.487523,145.75595 v 1.24999 l -0.0496,0.12399"
           style="fill:none;fill-opacity:1;stroke:#000000;stroke-width:0.499996;stroke-linecap:butt;stroke-linejoin:miter;stroke-miterlimit:10;stroke-dasharray:none;stroke-opacity:1" /><path
           id="path11-2-9-5"
           d="m 65.487523,146.00587 h -0.648457 c -0.194109,0 -0.351462,-0.15735 -0.351462,-0.35144 v -1.29707 c 0,-0.19413 0.157353,-0.35147 0.351462,-0.35147 h 4.297135 c 0.194111,0 0.351464,0.15734 0.351464,0.35147 v 1.29707 c 0,0.19409 -0.157353,0.35144 -0.351464,0.35144 h -0.648605"
           style="fill:none;fill-opacity:1;stroke:#000000;stroke-width:0.499996;stroke-linecap:butt;stroke-linejoin:miter;stroke-miterlimit:10;stroke-dasharray:none;stroke-opacity:1" /><path
           id="path9-5-6-6-2"
           d="m 68.487596,145.75529 v 1.25065 l 0.04926,0.12406"
           style="fill:none;fill-opacity:1;stroke:#000000;stroke-width:0.498428;stroke-linecap:butt;stroke-linejoin:miter;stroke-miterlimit:10;stroke-dasharray:none;stroke-opacity:1" /></g></g></g><style
     id="style1"><![CDATA[.B{fill:#006577}.C{opacity:.4}.D{fill:#fff}]]></style></svg>
